<svg width="160" height="42" fill="none" xmlns="http://www.w3.org/2000/svg"><g clip-path="url(#a)" fill-rule="evenodd"><path clip-path="evenodd" d="M0 .148h41.756v41.7H0V.148Z" fill="#00368C"/><path clip-path="evenodd" d="M12.412 26.407a3.347 3.347 0 0 0 1.428-2.946 3.513 3.513 0 0 0-.43-1.741 2.94 2.94 0 0 0-1.618-1.222 2.635 2.635 0 0 0 1.437-2.353 3.178 3.178 0 0 0-.4-1.662 3.06 3.06 0 0 0-1.123-1.087 5.172 5.172 0 0 0-1.715-.584 12.965 12.965 0 0 0-2.182-.171c-.586 0-1.22.027-1.9.081-.632.047-1.262.128-1.886.242V27.04c.695.152 1.4.252 2.11.3a33.43 33.43 0 0 0 2.04.062 7.48 7.48 0 0 0 4.24-.995Zm-3.906-4.6a3.8 3.8 0 0 1 1.85.367 1.3 1.3 0 0 1 .647 1.231 1.333 1.333 0 0 1-.772 1.329 4.834 4.834 0 0 1-2.029.359 15 15 0 0 1-.79-.019 9.909 9.909 0 0 1-.664-.053V21.81l1.758-.003Zm-1.76-4.85c.216-.024.461-.039.736-.045.276-.006.533-.009.772-.009a3.7 3.7 0 0 1 1.688.305 1.1 1.1 0 0 1 .575 1.06 1.149 1.149 0 0 1-.557 1.069 3.805 3.805 0 0 1-1.85.332H6.745l.001-2.712Zm10.731 7.894a7.034 7.034 0 0 1-1.374-.548l-.79 2.227c.202.111.409.211.62.3.286.123.58.225.88.307a10.05 10.05 0 0 0 2.667.341 5.89 5.89 0 0 0 3.682-.962 3.241 3.241 0 0 0 1.221-2.7 4.415 4.415 0 0 0-.233-1.527 2.965 2.965 0 0 0-.709-1.1 4.509 4.509 0 0 0-1.194-.817 19.107 19.107 0 0 0-1.688-.71 22.292 22.292 0 0 1-.853-.314 4.02 4.02 0 0 1-.683-.341 1.573 1.573 0 0 1-.458-.422.985.985 0 0 1-.162-.575.94.94 0 0 1 .44-.853 2.82 2.82 0 0 1 1.446-.278 5.05 5.05 0 0 1 1.536.207c.399.127.786.286 1.158.476l.808-2.21a7.613 7.613 0 0 0-3.682-.862 6.456 6.456 0 0 0-1.9.26 4.195 4.195 0 0 0-1.437.745 3.32 3.32 0 0 0-.916 1.177 3.626 3.626 0 0 0-.323 1.554 3.2 3.2 0 0 0 .305 1.463c.194.39.463.738.79 1.024.331.286.702.522 1.1.7.407.187.814.35 1.221.495a8.224 8.224 0 0 1 1.976.871 1.2 1.2 0 0 1 .575 1.015 1.43 1.43 0 0 1-.09.52.9.9 0 0 1-.323.4 1.8 1.8 0 0 1-.62.269 3.98 3.98 0 0 1-.979.1 7.116 7.116 0 0 1-2-.242l-.01.01Zm15.274 2.379a86.28 86.28 0 0 0 1.458-3.249 127.394 127.394 0 0 0 2.556-6.5c.363-1.004.684-1.904.963-2.7h-2.984c-.234.725-.493 1.502-.778 2.333-.284.83-.575 1.659-.87 2.484-.297.826-.583 1.616-.86 2.371a41.865 41.865 0 0 1-.768 1.955 27.088 27.088 0 0 1-.778-1.959l-.85-2.372a185.51 185.51 0 0 1-.87-2.484 145.16 145.16 0 0 1-.778-2.327h-3.09c.267.79.581 1.688.942 2.695.362 1.007.762 2.06 1.2 3.161.434 1.1.891 2.213 1.373 3.338s.971 2.21 1.466 3.254h2.673-.005Z" fill="#fff"/><path clip-path="evenodd" d="M55.053 26.298a3.348 3.348 0 0 0 1.428-2.946 3.52 3.52 0 0 0-.43-1.743 2.949 2.949 0 0 0-1.618-1.22 2.64 2.64 0 0 0 1.437-2.354 3.18 3.18 0 0 0-.4-1.661 3.064 3.064 0 0 0-1.123-1.087 5.175 5.175 0 0 0-1.715-.584 12.976 12.976 0 0 0-2.182-.17c-.587 0-1.22.026-1.9.08-.632.047-1.262.128-1.886.242v12.072c.695.152 1.4.252 2.11.3.676.041 1.356.063 2.04.064a7.482 7.482 0 0 0 4.24-.993Zm-3.906-4.6a3.784 3.784 0 0 1 1.85.369 1.3 1.3 0 0 1 .647 1.229 1.335 1.335 0 0 1-.772 1.331 4.837 4.837 0 0 1-2.03.358c-.287 0-.55 0-.79-.017-.239-.017-.46-.03-.665-.054v-3.215h1.76v-.001Zm-1.76-4.849a8.33 8.33 0 0 1 .736-.045c.275-.006.533-.009.772-.009a3.693 3.693 0 0 1 1.688.305 1.1 1.1 0 0 1 .575 1.06 1.15 1.15 0 0 1-.557 1.069 3.805 3.805 0 0 1-1.85.332h-1.365l.001-2.712Zm12.141 7.867V14.677h-2.8v12.45h8.316v-2.41H61.53v-.001Zm9.528-5.469c.132-.462.352-.895.647-1.275a2.95 2.95 0 0 1 1.033-.826 3.169 3.169 0 0 1 1.4-.3c.48-.008.955.09 1.392.287a2.85 2.85 0 0 1 1.042.817c.295.38.515.813.647 1.275.156.54.232 1.1.225 1.662a5.674 5.674 0 0 1-.225 1.653 3.769 3.769 0 0 1-.647 1.265 2.845 2.845 0 0 1-1.042.819 3.548 3.548 0 0 1-2.793 0 2.86 2.86 0 0 1-1.033-.819 3.756 3.756 0 0 1-.647-1.265c-.3-1.08-.3-2.22 0-3.3l.001.007Zm8.792-1.167a5.85 5.85 0 0 0-1.329-2.039 5.48 5.48 0 0 0-1.976-1.239 6.96 6.96 0 0 0-2.407-.413 6.784 6.784 0 0 0-2.362.413 5.58 5.58 0 0 0-1.976 1.239 5.985 5.985 0 0 0-1.356 2.039c-.35.895-.52 1.85-.5 2.812-.019.96.146 1.913.485 2.81a5.737 5.737 0 0 0 1.33 2.029 5.515 5.515 0 0 0 1.975 1.231 6.963 6.963 0 0 0 2.407.414 7.149 7.149 0 0 0 2.452-.414 5.333 5.333 0 0 0 1.967-1.231 5.773 5.773 0 0 0 1.3-2.029 7.66 7.66 0 0 0 .476-2.81 7.534 7.534 0 0 0-.486-2.812Zm10.992 9.008a6.542 6.542 0 0 0 1.67-.648l-.772-2.244c-.155.071-.329.15-.52.234a4.466 4.466 0 0 1-.666.224 7.724 7.724 0 0 1-1.962.243 3.947 3.947 0 0 1-1.652-.314 2.934 2.934 0 0 1-1.1-.854 3.39 3.39 0 0 1-.61-1.284 6.535 6.535 0 0 1-.19-1.608 5.155 5.155 0 0 1 .287-1.832 3.44 3.44 0 0 1 .763-1.23 2.865 2.865 0 0 1 1.1-.692 3.83 3.83 0 0 1 1.266-.215 6.382 6.382 0 0 1 1.733.215c.463.126.912.3 1.338.521l.808-2.263a5.568 5.568 0 0 0-1.275-.565 9.379 9.379 0 0 0-1.13-.27 8.14 8.14 0 0 0-1.438-.117 7.255 7.255 0 0 0-2.533.431 5.557 5.557 0 0 0-2.012 1.266 5.937 5.937 0 0 0-1.329 2.048 7.4 7.4 0 0 0-.485 2.758 6.731 6.731 0 0 0 1.59 4.8 6.045 6.045 0 0 0 4.624 1.688 9.75 9.75 0 0 0 2.5-.288l-.005-.004Zm14.136.039a36.783 36.783 0 0 0-2.669-3.771 21.292 21.292 0 0 0-2.88-2.957 85.437 85.437 0 0 0 5.262-5.72h-3.327a332.57 332.57 0 0 1-2.059 2.299c-.743.823-1.477 1.615-2.2 2.374v-4.675h-2.8v12.45h2.8v-5.272c.458.358.893.747 1.3 1.162.432.437.846.895 1.241 1.374.395.479.764.953 1.106 1.422.343.467.64.904.892 1.313h3.331l.003.001Zm8.8-.036a6.533 6.533 0 0 0 1.67-.647l-.772-2.244c-.155.071-.329.15-.521.233a4.454 4.454 0 0 1-.665.224 7.674 7.674 0 0 1-1.962.243 3.942 3.942 0 0 1-1.652-.314 2.934 2.934 0 0 1-1.1-.854 3.4 3.4 0 0 1-.611-1.284 6.55 6.55 0 0 1-.189-1.608 5.144 5.144 0 0 1 .287-1.832c.164-.46.424-.879.763-1.23a2.864 2.864 0 0 1 1.1-.692 3.83 3.83 0 0 1 1.266-.216 6.378 6.378 0 0 1 1.733.216c.463.126.912.3 1.338.521l.808-2.263a5.617 5.617 0 0 0-1.275-.566 9.422 9.422 0 0 0-1.131-.27 8.14 8.14 0 0 0-1.437-.117 7.256 7.256 0 0 0-2.533.431 5.563 5.563 0 0 0-2.012 1.266 5.935 5.935 0 0 0-1.329 2.048 7.38 7.38 0 0 0-.485 2.758 6.734 6.734 0 0 0 1.589 4.8 6.04 6.04 0 0 0 4.625 1.688 9.749 9.749 0 0 0 2.5-.288l-.005-.003Zm10.973-7.652h-4.706v-4.76h-2.8v12.448h2.8v-5.28h4.706v5.28h2.8v-12.45h-2.8v4.762Zm17.026 7.688a188.68 188.68 0 0 0-1.335-3.718 148.66 148.66 0 0 0-1.236-3.215 80.01 80.01 0 0 0-1.2-2.865c-.4-.903-.803-1.787-1.209-2.65h-2.656a61.635 61.635 0 0 0-1.216 2.65 120.535 120.535 0 0 0-2.423 6.08 186.117 186.117 0 0 0-1.333 3.718h2.91c.133-.43.28-.872.441-1.329l.472-1.365h4.861l.476 1.362c.159.457.308.9.447 1.332h3.001Zm-6.073-8.9.423 1.078c.161.407.33.857.509 1.349.178.492.362 1.008.553 1.547h-3.559c.196-.537.389-1.05.579-1.542.19-.491.362-.94.516-1.347.154-.408.291-.768.411-1.079.12-.311.212-.557.275-.738l.293.732Zm7.672 8.9h2.8v-12.45h-2.8v12.45Zm16.379 0v-12.45h-2.784v7.35c-.431-.647-.892-1.32-1.382-2.02a59.857 59.857 0 0 0-2.946-3.871 21.794 21.794 0 0 0-1.312-1.455h-2.28v12.446h2.767v-8.154a42.668 42.668 0 0 1 2.982 3.934 61.689 61.689 0 0 1 2.6 4.22h2.355Z" fill="#00368C"/></g><defs><clipPath id="a"><path fill="#fff" transform="translate(0 .148)" d="M0 0h159.752v41.704H0z"/></clipPath></defs></svg>